<svg version="1.1" xmlns="http://www.w3.org/2000/svg" width="200" height="200">
  <rect x="0" y="0" rx="6" ry="6" width="100" height="100" stroke="#FFCC00" stroke-width="4" fill="#E6B800" />
  <line x1="0" y1="20" x2="100" y2="20" stroke="#FFCC00" stroke-width="4" />
  <line x1="0" y1="40" x2="100" y2="40" stroke="#FFCC00" stroke-width="4" />
  <line x1="0" y1="60" x2="100" y2="60" stroke="#FFCC00" stroke-width="4" />
  <line x1="0" y1="80" x2="100" y2="80" stroke="#FFCC00" stroke-width="4" />
  <line x1="20" y1="0" x2="20" y2="100" stroke="#FFCC00" stroke-width="4" />
  <line x1="40" y1="0" x2="40" y2="100" stroke="#FFCC00" stroke-width="4" />
  <line x1="60" y1="0" x2="60" y2="100" stroke="#FFCC00" stroke-width="4" />
  <line x1="80" y1="0" x2="80" y2="100" stroke="#FFCC00" stroke-width="4" />
  <circle cx="10" cy="10" r="7" fill="#FFCC00" />
  <circle cx="30" cy="10" r="7" fill="#FFCC00" />
  <circle cx="50" cy="10" r="7" fill="#FFCC00" />
  <circle cx="50" cy="30" r="7" fill="#FFCC00" />
  <circle cx="50" cy="50" r="7" fill="#FFCC00" />
  <circle cx="30" cy="50" r="7" fill="#FFCC00" />
  <circle cx="10" cy="30" r="7" fill="#FFCC00" />
  <circle cx="10" cy="50" r="7" fill="#FFCC00" />
  <circle cx="10" cy="70" r="7" fill="#FFCC00" />
  <circle cx="10" cy="90" r="7" fill="#FFCC00" />
</svg>